#!OML:ASF H:\Male1\Project 1\Capture day 1\Session 1\Male1.ASF
:FULLY-SPECIFIED
:DEGREES
439
root 48.5941 15.3461 -0.804585 723.964 244.08 716.126
lowerback 6.20495 1.09146 2.52104
upperback 5.757 1.31514 -0.36942
thorax 2.53678 0.648735 -1.84752
lowerneck -4.79583 9.1001 14.6875
upperneck 10.6784 12.953 -17.4694
head 6.14113 5.95296 -6.97206
rclavicle -3.1408e-014 7.15625e-015
rhumerus -41.064 2.29875 -85.3193
rradius 39.6151
rwrist -26.1483
rhand -19.8215 -0.80545
rfingers 7.12502
rthumb 6.5121 -30.6853
lclavicle -3.1408e-014 7.15625e-015
lhumerus -29.9853 3.57876 83.9536
lradius 30.5764
lwrist -6.05932
lhand -15.4332 14.9927
lfingers 7.12502
lthumb 10.7469 44.6978
rfemur -9.30144 9.25324 23.856
rtibia 29.9082
rfoot -34.7315 -24.5143
rtoes -3.59654
lfemur -14.4842 -3.04309 -23.0225
ltibia 39.2359
lfoot -25.0165 14.8942
ltoes -16.3646
440
root 48.6173 15.3462 -0.822512 724.475 245.421 715.663
lowerback 5.91765 1.03793 2.29437
upperback 5.69823 1.23992 -0.326221
thorax 2.62344 0.607839 -1.66849
lowerneck -5.13869 8.987 14.3353
upperneck 10.9495 12.7843 -17.185
head 6.21176 5.84914 -6.82693
rclavicle 4.37326e-015 -6.75868e-015
rhumerus -40.9531 2.32137 -85.2977
rradius 39.217
rwrist -25.899
rhand -19.8574 -0.833877
rfingers 7.12502
rthumb 6.47744 -30.7148
lclavicle 4.37326e-015 -6.75868e-015
lhumerus -30.1509 3.84824 83.9763
lradius 30.7673
lwrist -5.7434
lhand -14.5137 16.0883
lfingers 7.12502
lthumb 11.6338 45.7454
rfemur -9.31895 9.29043 23.913
rtibia 29.9318
rfoot -35.7784 -25.1183
rtoes -1.44057
lfemur -14.0104 -2.17646 -23.1108
ltibia 39.2194
lfoot -25.405 15.3295
ltoes -15.4285
441
root 48.6415 15.3422 -0.833793 724.642 246.629 715.546
lowerback 5.82615 1.07465 2.38159
upperback 5.5567 1.30557 -0.377823
thorax 2.53355 0.647988 -1.77217
lowerneck -5.36261 8.70123 14.1531
upperneck 11.1165 12.3554 -16.8366
head 6.19371 5.64102 -6.72363
rclavicle -3.85642e-014 2.46493e-014
rhumerus -40.9786 1.92851 -85.3155
rradius 38.8779
rwrist -25.474
rhand -19.8586 -0.770264
rfingers 7.12502
rthumb 6.47629 -30.6512
lclavicle -3.85642e-014 2.46493e-014
lhumerus -30.3677 3.56809 83.9457
lradius 30.9733
lwrist -5.32414
lhand -14.2304 14.1753
lfingers 7.12502
lthumb 11.9069 43.8167
rfemur -9.34728 9.29513 24.1004
rtibia 29.9605
rfoot -36.6623 -25.6452
rtoes 0.0210675
lfemur -13.5372 -1.53015 -23.0277
ltibia 39.1687
lfoot -25.8291 15.9456
ltoes -14.9251
442
root 48.666 15.3326 -0.836388 724.805 247.716 715.448
lowerback 5.74531 1.12889 2.43781
upperback 5.43333 1.39077 -0.391428
thorax 2.45612 0.695416 -1.81997
lowerneck -5.52793 8.38885 13.8762
upperneck 11.201 11.8977 -16.5029
head 6.13278 5.41871 -6.61386
rclavicle -4.07509e-015 -6.36111e-015
rhumerus -41.0549 1.76664 -85.3129
rradius 38.7752
rwrist -25.2164
rhand -19.8694 -0.772126
rfingers 7.12502
rthumb 6.46592 -30.6534
lclavicle -4.07509e-015 -6.36111e-015
lhumerus -30.5116 3.36191 83.9526
lradius 30.8149
lwrist -5.75163
lhand -14.3932 12.6876
lfingers 7.12502
lthumb 11.75 42.338
rfemur -9.44249 9.07983 24.2244
rtibia 30.0005
rfoot -37.1938 -26.0254
rtoes 0.754794
lfemur -13.1357 -1.22238 -22.9618
ltibia 39.0453
lfoot -26.2036 16.542
ltoes -14.709
443
root 48.6883 15.3274 -0.838414 725.618 248.793 714.676
lowerback 5.62115 1.10988 2.119
upperback 5.35523 1.36131 -0.405619
thorax 2.43307 0.673443 -1.65329
lowerneck -5.83847 8.22592 13.4913
upperneck 11.4246 11.6575 -16.1634
head 6.1718 5.28669 -6.45443
rclavicle 7.95139e-015 -7.55382e-015
rhumerus -41.0386 2.04769 -85.3813
rradius 38.7834
rwrist -25.265
rhand -19.8637 -0.734513
rfingers 7.12502
rthumb 6.47144 -30.6156
lclavicle 7.95139e-015 -7.55382e-015
lhumerus -30.5873 3.43137 83.9351
lradius 30.8246
lwrist -5.87645
lhand -14.175 12.1615
lfingers 7.12502
lthumb 11.9604 41.7998
rfemur -9.56868 8.93492 24.0709
rtibia 30.0832
rfoot -37.985 -26.3034
rtoes 2.36521
lfemur -12.7692 -1.16585 -23.1437
ltibia 38.7877
lfoot -26.4487 16.8999
ltoes -15.1241
444
root 48.711 15.3277 -0.838814 726.277 249.935 713.931
lowerback 5.68191 1.05971 1.85045
upperback 5.34429 1.28919 -0.437074
thorax 2.37785 0.629764 -1.53416
lowerneck -6.29124 8.11454 13.2071
upperneck 11.6747 11.4739 -15.844
head 6.2625 5.1799 -6.30731
rclavicle -3.37934e-015 0
rhumerus -40.8659 2.29423 -85.4952
rradius 38.7409
rwrist -25.3529
rhand -19.7767 -0.540849
rfingers 7.12502
rthumb 6.55541 -30.4194
lclavicle -3.37934e-015 0
lhumerus -30.5822 3.36077 83.9464
lradius 30.9653
lwrist -5.85674
lhand -14.2634 12.2037
lfingers 7.12502
lthumb 11.8751 41.847
rfemur -9.56471 8.90609 23.9847
rtibia 30.2434
rfoot -39.1003 -26.542
rtoes 4.24123
lfemur -12.2841 -1.35733 -23.2693
ltibia 38.3885
lfoot -26.3517 17.3636
ltoes -14.788
445
root 48.7299 15.32 -0.833276 726.442 250.98 713.73
lowerback 5.70521 1.051 1.82332
upperback 5.31952 1.28066 -0.440201
thorax 2.33808 0.625573 -1.52251
lowerneck -6.65974 7.98625 12.9519
upperneck 11.8793 11.2638 -15.4889
head 6.32103 5.0699 -6.15909
rclavicle -3.6477e-014 -4.77083e-015
rhumerus -40.7355 2.4182 -85.5651
rradius 38.7376
rwrist -25.3579
rhand -19.651 -0.399901
rfingers 7.12502
rthumb 6.67675 -30.2746
lclavicle -3.6477e-014 -4.77083e-015
lhumerus -30.5916 3.31652 83.9378
lradius 31.161
lwrist -6.02907
lhand -14.0658 12.9052
lfingers 7.12502
lthumb 12.0657 42.5374
rfemur -9.61219 8.86586 24.0854
rtibia 30.423
rfoot -39.9351 -26.9026
rtoes 4.76464
lfemur -11.8127 -1.8543 -23.2033
ltibia 37.8634
lfoot -26.4396 17.812
ltoes -12.6366
446
root 48.7461 15.306 -0.824387 726.786 251.945 713.362
lowerback 5.53392 1.03129 1.5984
upperback 5.33535 1.24574 -0.344843
thorax 2.44 0.601617 -1.29393
lowerneck -6.7724 7.7671 12.5154
upperneck 12.0435 10.9774 -15.2302
head 6.30721 4.91828 -6.03087
rclavicle 1.95803e-014 -1.19271e-014
rhumerus -40.6298 2.84809 -85.5235
rradius 38.8748
rwrist -25.4591
rhand -19.5142 -0.393084
rfingers 7.12502
rthumb 6.80882 -30.2636
lclavicle 1.95803e-014 -1.19271e-014
lhumerus -30.6007 3.54588 83.9687
lradius 31.316
lwrist -6.41891
lhand -22.5167 -0.0112772
lfingers 7.12502
lthumb 3.90978 29.9326
rfemur -9.66566 8.97703 24.1272
rtibia 30.5582
rfoot -40.8206 -27.3555
rtoes 5.61387
lfemur -11.3422 -2.56721 -23.2145
ltibia 37.2825
lfoot -27.0891 17.9578
ltoes -10.5259
447
root 48.7588 15.3043 -0.813181 727.381 252.861 712.795
lowerback 5.33506 1.10002 1.44366
upperback 5.31527 1.33554 -0.36672
thorax 2.5292 0.644996 -1.22892
lowerneck -7.00314 7.60161 12.4278
upperneck 12.2301 10.7274 -15.0095
head 6.35063 4.79525 -5.96499
rclavicle -3.62782e-014 3.57812e-015
rhumerus -40.5882 2.89508 -85.4968
rradius 39.0934
rwrist -25.5379
rhand -19.4699 -0.445727
rfingers 7.12502
rthumb 6.85151 -30.3149
lclavicle -3.62782e-014 3.57812e-015
lhumerus -30.5614 3.2282 84.0166
lradius 31.3906
lwrist -6.47148
lhand -22.2166 -0.162519
lfingers 7.12502
lthumb 4.19965 29.7758
rfemur -9.72351 9.27054 24.1019
rtibia 30.641
rfoot -41.9423 -27.7816
rtoes 7.30385
lfemur -10.9563 -3.28983 -23.3188
ltibia 36.697
lfoot -27.4622 18.4647
ltoes -10.5201
448
root 48.7731 15.3067 -0.79992 727.384 253.72 712.856
lowerback 5.21626 1.12059 1.48458
upperback 5.26321 1.36913 -0.38049
thorax 2.5438 0.665709 -1.26508
lowerneck -7.2034 7.48707 12.3154
upperneck 12.3978 10.5444 -14.7411
head 6.38945 4.70861 -5.87228
rclavicle -5.17834e-014 1.98785e-014
rhumerus -40.4911 2.97445 -85.5632
rradius 39.2509
rwrist -25.5989
rhand -19.4348 -0.378236
rfingers 7.12502
rthumb 6.88541 -30.2463
lclavicle -5.17834e-014 1.98785e-014
lhumerus -30.6008 2.94037 83.9998
lradius 31.4886
lwrist -6.34328
lhand -21.9021 -0.0301744
lfingers 7.12502
lthumb 4.5033 29.902
rfemur -9.7398 9.65266 24.2842
rtibia 30.6522
rfoot -43.0876 -28.2107
rtoes 8.78169
lfemur -10.6903 -3.93155 -23.2148
ltibia 36.1586
lfoot -27.4982 19.1832
ltoes -11.4125
449
root 48.7878 15.3042 -0.784323 727.018 254.527 713.329
lowerback 5.08924 1.11145 1.56909
upperback 5.21503 1.36312 -0.356467
thorax 2.56598 0.667159 -1.28544
lowerneck -7.36459 7.32292 12.044
upperneck 12.5768 10.3084 -14.4317
head 6.40729 4.59208 -5.74696
rclavicle 1.92821e-014 -6.36111e-015
rhumerus -40.3471 3.21885 -85.7079
rradius 39.4083
rwrist -25.5881
rhand -19.5931 -0.369502
rfingers 7.12502
rthumb 6.73267 -30.2425
lclavicle 1.92821e-014 -6.36111e-015
lhumerus -30.6431 2.76941 83.9521
lradius 31.5875
lwrist -6.33196
lhand -21.5664 0.771567
lfingers 7.12502
lthumb 4.82749 30.6966
rfemur -9.76866 10.051 24.5557
rtibia 30.6127
rfoot -44.2855 -28.5472
rtoes 9.98789
lfemur -10.5409 -4.59748 -22.9973
ltibia 35.6588
lfoot -27.7788 19.5867
ltoes -11.6634
450
root 48.8001 15.298 -0.765152 726.855 255.372 713.597
lowerback 4.94061 1.08233 1.57533
upperback 5.17816 1.32717 -0.325679
thorax 2.60859 0.65105 -1.2538
lowerneck -7.54118 7.23546 11.7994
upperneck 12.6844 10.1701 -14.127
head 6.42253 4.5257 -5.6155
rclavicle -6.63444e-014 1.03368e-014
rhumerus -40.2105 3.54027 -85.8656
rradius 39.6126
rwrist -25.486
rhand -20.1155 -0.633853
rfingers 7.12502
rthumb 6.22832 -30.5223
lclavicle -6.63444e-014 1.03368e-014
lhumerus -30.6326 2.41571 84.0724
lradius 31.5358
lwrist -5.63654
lhand -21.8467 1.72974
lfingers 7.12502
lthumb 4.5568 31.6607
rfemur -9.81795 10.4022 24.735
rtibia 30.6118
rfoot -45.5472 -28.7761
rtoes 11.2511
lfemur -10.4555 -5.29474 -22.8877
ltibia 35.1516
lfoot -27.7791 20.0548
ltoes -12.6046
451
root 48.8115 15.2924 -0.744457 726.725 256.177 713.812
lowerback 4.80814 1.07021 1.52884
upperback 5.15034 1.31201 -0.3072
thorax 2.65128 0.643606 -1.20612
lowerneck -7.70325 6.97412 11.4298
upperneck 12.7784 9.79389 -13.7323
head 6.38805 4.34544 -5.46012
rclavicle 1.37161e-014 -4.17448e-015
rhumerus -40.0745 3.81208 -85.9915
rradius 39.844
rwrist -25.5034
rhand -20.4963 -0.843617
rfingers 7.12502
rthumb 5.86062 -30.7426
lclavicle 1.37161e-014 -4.17448e-015
lhumerus -30.6174 1.73296 84.3449
lradius 31.4219
lwrist -4.14454
lhand -22.3996 3.04112
lfingers 7.12502
lthumb 4.02286 32.9829
rfemur -9.8591 10.6971 24.877
rtibia 30.6404
rfoot -46.7244 -28.9722
rtoes 12.5904
lfemur -10.4015 -5.96577 -22.8161
ltibia 34.6619
lfoot -27.5782 20.274
ltoes -13.5584
